<mxfile host="app.diagrams.net" agent="Mozilla/5.0 (Windows NT 10.0; Win64; x64) AppleWebKit/537.36 (KHTML, like Gecko) Chrome/128.0.0.0 Safari/537.36 Edg/128.0.0.0" version="24.7.16">
  <diagram id="C5RBs43oDa-KdzZeNtuy" name="Page-1">
    <mxGraphModel dx="1426" dy="781" grid="1" gridSize="10" guides="1" tooltips="1" connect="1" arrows="1" fold="1" page="1" pageScale="1" pageWidth="827" pageHeight="1169" math="0" shadow="0">
      <root>
        <mxCell id="WIyWlLk6GJQsqaUBKTNV-0" />
        <mxCell id="WIyWlLk6GJQsqaUBKTNV-1" parent="WIyWlLk6GJQsqaUBKTNV-0" />
        <mxCell id="WIyWlLk6GJQsqaUBKTNV-2" value="" style="rounded=0;html=1;jettySize=auto;orthogonalLoop=1;fontSize=11;endArrow=block;endFill=0;endSize=8;strokeWidth=1;shadow=0;labelBackgroundColor=none;edgeStyle=orthogonalEdgeStyle;strokeColor=#60E696;fontColor=default;" parent="WIyWlLk6GJQsqaUBKTNV-1" source="WIyWlLk6GJQsqaUBKTNV-3" edge="1">
          <mxGeometry relative="1" as="geometry">
            <mxPoint x="220" y="170" as="targetPoint" />
          </mxGeometry>
        </mxCell>
        <mxCell id="WIyWlLk6GJQsqaUBKTNV-3" value="INÍCIO&amp;nbsp;" style="rounded=1;whiteSpace=wrap;html=1;fontSize=12;glass=0;strokeWidth=1;shadow=0;labelBackgroundColor=none;fillColor=#F694C1;strokeColor=#AF45ED;fontColor=#095C86;" parent="WIyWlLk6GJQsqaUBKTNV-1" vertex="1">
          <mxGeometry x="160" y="80" width="120" height="40" as="geometry" />
        </mxCell>
        <mxCell id="WIyWlLk6GJQsqaUBKTNV-11" value="FIM" style="rounded=1;whiteSpace=wrap;html=1;fontSize=12;glass=0;strokeWidth=1;shadow=0;labelBackgroundColor=none;fillColor=#F694C1;strokeColor=#AF45ED;fontColor=#095C86;" parent="WIyWlLk6GJQsqaUBKTNV-1" vertex="1">
          <mxGeometry x="1050" y="760" width="120" height="40" as="geometry" />
        </mxCell>
        <mxCell id="7Bf5DCgLU5YpKmFM6Oz9-0" value="&lt;b&gt;INTEIRO &lt;/b&gt;VALOR1, VALOR2, RESTO&lt;b&gt;&amp;nbsp;&lt;/b&gt;" style="rounded=0;whiteSpace=wrap;html=1;sketch=1;hachureGap=4;jiggle=2;curveFitting=1;strokeColor=#36393d;fontFamily=Architects Daughter;fontSource=https%3A%2F%2Ffonts.googleapis.com%2Fcss%3Ffamily%3DArchitects%2BDaughter;fillColor=#ffcccc;" vertex="1" parent="WIyWlLk6GJQsqaUBKTNV-1">
          <mxGeometry x="115" y="170" width="210" height="60" as="geometry" />
        </mxCell>
        <mxCell id="7Bf5DCgLU5YpKmFM6Oz9-1" value="VERIFIQUE SE UM VALOR É DIVISOR DE OUTRO. DIGITE DOIS VALORES:" style="shape=document;whiteSpace=wrap;html=1;boundedLbl=1;sketch=1;hachureGap=4;jiggle=2;curveFitting=1;strokeColor=#36393d;fontFamily=Architects Daughter;fontSource=https%3A%2F%2Ffonts.googleapis.com%2Fcss%3Ffamily%3DArchitects%2BDaughter;fillColor=#ffcccc;" vertex="1" parent="WIyWlLk6GJQsqaUBKTNV-1">
          <mxGeometry x="160" y="280" width="130" height="100" as="geometry" />
        </mxCell>
        <mxCell id="7Bf5DCgLU5YpKmFM6Oz9-7" value="" style="endArrow=classic;html=1;rounded=0;sketch=1;hachureGap=4;jiggle=2;curveFitting=1;strokeColor=#60E696;fontFamily=Architects Daughter;fontSource=https%3A%2F%2Ffonts.googleapis.com%2Fcss%3Ffamily%3DArchitects%2BDaughter;fontColor=#095C86;fillColor=#F694C1;exitX=0.5;exitY=1;exitDx=0;exitDy=0;" edge="1" parent="WIyWlLk6GJQsqaUBKTNV-1" source="7Bf5DCgLU5YpKmFM6Oz9-0">
          <mxGeometry width="50" height="50" relative="1" as="geometry">
            <mxPoint x="280" y="320" as="sourcePoint" />
            <mxPoint x="220" y="278" as="targetPoint" />
          </mxGeometry>
        </mxCell>
        <mxCell id="7Bf5DCgLU5YpKmFM6Oz9-14" value="" style="edgeStyle=orthogonalEdgeStyle;rounded=0;sketch=1;hachureGap=4;jiggle=2;curveFitting=1;orthogonalLoop=1;jettySize=auto;html=1;strokeColor=#60E696;fontFamily=Architects Daughter;fontSource=https%3A%2F%2Ffonts.googleapis.com%2Fcss%3Ffamily%3DArchitects%2BDaughter;fontColor=#095C86;fillColor=#F694C1;" edge="1" parent="WIyWlLk6GJQsqaUBKTNV-1" source="7Bf5DCgLU5YpKmFM6Oz9-8" target="7Bf5DCgLU5YpKmFM6Oz9-13">
          <mxGeometry relative="1" as="geometry" />
        </mxCell>
        <mxCell id="7Bf5DCgLU5YpKmFM6Oz9-8" value="LEIA(VALOR1, VALOR2)" style="rounded=0;whiteSpace=wrap;html=1;sketch=1;hachureGap=4;jiggle=2;curveFitting=1;strokeColor=#36393d;fontFamily=Architects Daughter;fontSource=https%3A%2F%2Ffonts.googleapis.com%2Fcss%3Ffamily%3DArchitects%2BDaughter;fillColor=#ffcccc;" vertex="1" parent="WIyWlLk6GJQsqaUBKTNV-1">
          <mxGeometry x="147.5" y="450" width="145" height="60" as="geometry" />
        </mxCell>
        <mxCell id="7Bf5DCgLU5YpKmFM6Oz9-11" value="" style="endArrow=classic;html=1;rounded=0;sketch=1;hachureGap=4;jiggle=2;curveFitting=1;strokeColor=#60E696;fontFamily=Architects Daughter;fontSource=https%3A%2F%2Ffonts.googleapis.com%2Fcss%3Ffamily%3DArchitects%2BDaughter;fontColor=#095C86;fillColor=#F694C1;exitX=0.446;exitY=0.96;exitDx=0;exitDy=0;exitPerimeter=0;entryX=0.5;entryY=0;entryDx=0;entryDy=0;" edge="1" parent="WIyWlLk6GJQsqaUBKTNV-1" source="7Bf5DCgLU5YpKmFM6Oz9-1" target="7Bf5DCgLU5YpKmFM6Oz9-8">
          <mxGeometry width="50" height="50" relative="1" as="geometry">
            <mxPoint x="280" y="320" as="sourcePoint" />
            <mxPoint x="330" y="270" as="targetPoint" />
          </mxGeometry>
        </mxCell>
        <mxCell id="7Bf5DCgLU5YpKmFM6Oz9-17" value="" style="edgeStyle=orthogonalEdgeStyle;rounded=0;sketch=1;hachureGap=4;jiggle=2;curveFitting=1;orthogonalLoop=1;jettySize=auto;html=1;strokeColor=#60E696;fontFamily=Architects Daughter;fontSource=https%3A%2F%2Ffonts.googleapis.com%2Fcss%3Ffamily%3DArchitects%2BDaughter;fontColor=#095C86;fillColor=#F694C1;" edge="1" parent="WIyWlLk6GJQsqaUBKTNV-1" source="7Bf5DCgLU5YpKmFM6Oz9-13" target="7Bf5DCgLU5YpKmFM6Oz9-16">
          <mxGeometry relative="1" as="geometry" />
        </mxCell>
        <mxCell id="7Bf5DCgLU5YpKmFM6Oz9-19" value="" style="edgeStyle=orthogonalEdgeStyle;rounded=0;sketch=1;hachureGap=4;jiggle=2;curveFitting=1;orthogonalLoop=1;jettySize=auto;html=1;strokeColor=#60E696;fontFamily=Architects Daughter;fontSource=https%3A%2F%2Ffonts.googleapis.com%2Fcss%3Ffamily%3DArchitects%2BDaughter;fontColor=#095C86;fillColor=#F694C1;" edge="1" parent="WIyWlLk6GJQsqaUBKTNV-1" source="7Bf5DCgLU5YpKmFM6Oz9-13" target="7Bf5DCgLU5YpKmFM6Oz9-18">
          <mxGeometry relative="1" as="geometry" />
        </mxCell>
        <mxCell id="7Bf5DCgLU5YpKmFM6Oz9-13" value="VALOR1 &amp;gt; VALOR2" style="rhombus;whiteSpace=wrap;html=1;fontFamily=Architects Daughter;fillColor=#ffcccc;strokeColor=#36393d;rounded=0;sketch=1;hachureGap=4;jiggle=2;curveFitting=1;fontSource=https%3A%2F%2Ffonts.googleapis.com%2Fcss%3Ffamily%3DArchitects%2BDaughter;" vertex="1" parent="WIyWlLk6GJQsqaUBKTNV-1">
          <mxGeometry x="135" y="585" width="170" height="100" as="geometry" />
        </mxCell>
        <mxCell id="7Bf5DCgLU5YpKmFM6Oz9-15" value="SIM" style="text;html=1;align=center;verticalAlign=middle;resizable=0;points=[];autosize=1;strokeColor=#36393d;fillColor=#cdeb8b;fontFamily=Architects Daughter;fontSource=https%3A%2F%2Ffonts.googleapis.com%2Fcss%3Ffamily%3DArchitects%2BDaughter;" vertex="1" parent="WIyWlLk6GJQsqaUBKTNV-1">
          <mxGeometry x="300" y="578" width="40" height="30" as="geometry" />
        </mxCell>
        <mxCell id="7Bf5DCgLU5YpKmFM6Oz9-16" value="RESTO &amp;lt;-- VALOR1 % VALOR2" style="whiteSpace=wrap;html=1;fontFamily=Architects Daughter;fillColor=#ffcccc;strokeColor=#36393d;rounded=0;sketch=1;hachureGap=4;jiggle=2;curveFitting=1;fontSource=https%3A%2F%2Ffonts.googleapis.com%2Fcss%3Ffamily%3DArchitects%2BDaughter;" vertex="1" parent="WIyWlLk6GJQsqaUBKTNV-1">
          <mxGeometry x="410" y="605" width="180" height="60" as="geometry" />
        </mxCell>
        <mxCell id="7Bf5DCgLU5YpKmFM6Oz9-22" value="" style="edgeStyle=orthogonalEdgeStyle;rounded=0;sketch=1;hachureGap=4;jiggle=2;curveFitting=1;orthogonalLoop=1;jettySize=auto;html=1;strokeColor=#60E696;fontFamily=Architects Daughter;fontSource=https%3A%2F%2Ffonts.googleapis.com%2Fcss%3Ffamily%3DArchitects%2BDaughter;fontColor=#095C86;fillColor=#F694C1;" edge="1" parent="WIyWlLk6GJQsqaUBKTNV-1" source="7Bf5DCgLU5YpKmFM6Oz9-18" target="7Bf5DCgLU5YpKmFM6Oz9-21">
          <mxGeometry relative="1" as="geometry" />
        </mxCell>
        <mxCell id="7Bf5DCgLU5YpKmFM6Oz9-18" value="VALOR2 &amp;gt; VALOR1" style="rhombus;whiteSpace=wrap;html=1;fontFamily=Architects Daughter;fillColor=#ffcccc;strokeColor=#36393d;rounded=0;sketch=1;hachureGap=4;jiggle=2;curveFitting=1;fontSource=https%3A%2F%2Ffonts.googleapis.com%2Fcss%3Ffamily%3DArchitects%2BDaughter;" vertex="1" parent="WIyWlLk6GJQsqaUBKTNV-1">
          <mxGeometry x="135" y="760" width="170" height="105" as="geometry" />
        </mxCell>
        <mxCell id="7Bf5DCgLU5YpKmFM6Oz9-20" value="NÃO" style="text;html=1;align=center;verticalAlign=middle;resizable=0;points=[];autosize=1;strokeColor=#b85450;fillColor=#f8cecc;fontFamily=Architects Daughter;fontSource=https%3A%2F%2Ffonts.googleapis.com%2Fcss%3Ffamily%3DArchitects%2BDaughter;" vertex="1" parent="WIyWlLk6GJQsqaUBKTNV-1">
          <mxGeometry x="135" y="698" width="50" height="30" as="geometry" />
        </mxCell>
        <mxCell id="7Bf5DCgLU5YpKmFM6Oz9-21" value="RESTO &amp;lt;-- VALOR2 % VALOR1" style="whiteSpace=wrap;html=1;fontFamily=Architects Daughter;fillColor=#ffcccc;strokeColor=#36393d;rounded=0;sketch=1;hachureGap=4;jiggle=2;curveFitting=1;fontSource=https%3A%2F%2Ffonts.googleapis.com%2Fcss%3Ffamily%3DArchitects%2BDaughter;" vertex="1" parent="WIyWlLk6GJQsqaUBKTNV-1">
          <mxGeometry x="410" y="782.5" width="180" height="60" as="geometry" />
        </mxCell>
        <mxCell id="7Bf5DCgLU5YpKmFM6Oz9-23" value="SIM" style="text;html=1;align=center;verticalAlign=middle;resizable=0;points=[];autosize=1;strokeColor=#36393d;fillColor=#cdeb8b;fontFamily=Architects Daughter;fontSource=https%3A%2F%2Ffonts.googleapis.com%2Fcss%3Ffamily%3DArchitects%2BDaughter;" vertex="1" parent="WIyWlLk6GJQsqaUBKTNV-1">
          <mxGeometry x="300" y="760" width="40" height="30" as="geometry" />
        </mxCell>
        <mxCell id="7Bf5DCgLU5YpKmFM6Oz9-24" value="RESTO == 0" style="rhombus;whiteSpace=wrap;html=1;fontFamily=Architects Daughter;fillColor=#ffcccc;strokeColor=#36393d;rounded=0;sketch=1;hachureGap=4;jiggle=2;curveFitting=1;fontSource=https%3A%2F%2Ffonts.googleapis.com%2Fcss%3Ffamily%3DArchitects%2BDaughter;" vertex="1" parent="WIyWlLk6GJQsqaUBKTNV-1">
          <mxGeometry x="770" y="685" width="120" height="65" as="geometry" />
        </mxCell>
        <mxCell id="7Bf5DCgLU5YpKmFM6Oz9-27" value="" style="endArrow=none;html=1;rounded=0;sketch=1;hachureGap=4;jiggle=2;curveFitting=1;strokeColor=#60E696;fontFamily=Architects Daughter;fontSource=https%3A%2F%2Ffonts.googleapis.com%2Fcss%3Ffamily%3DArchitects%2BDaughter;fontColor=#095C86;fillColor=#F694C1;" edge="1" parent="WIyWlLk6GJQsqaUBKTNV-1">
          <mxGeometry width="50" height="50" relative="1" as="geometry">
            <mxPoint x="590" y="820" as="sourcePoint" />
            <mxPoint x="680" y="720" as="targetPoint" />
            <Array as="points">
              <mxPoint x="680" y="820" />
            </Array>
          </mxGeometry>
        </mxCell>
        <mxCell id="7Bf5DCgLU5YpKmFM6Oz9-28" value="" style="endArrow=none;html=1;rounded=0;sketch=1;hachureGap=4;jiggle=2;curveFitting=1;strokeColor=#60E696;fontFamily=Architects Daughter;fontSource=https%3A%2F%2Ffonts.googleapis.com%2Fcss%3Ffamily%3DArchitects%2BDaughter;fontColor=#095C86;fillColor=#F694C1;exitX=1.011;exitY=0.617;exitDx=0;exitDy=0;exitPerimeter=0;" edge="1" parent="WIyWlLk6GJQsqaUBKTNV-1" source="7Bf5DCgLU5YpKmFM6Oz9-16">
          <mxGeometry width="50" height="50" relative="1" as="geometry">
            <mxPoint x="590" y="820" as="sourcePoint" />
            <mxPoint x="680" y="720" as="targetPoint" />
            <Array as="points">
              <mxPoint x="680" y="640" />
            </Array>
          </mxGeometry>
        </mxCell>
        <mxCell id="7Bf5DCgLU5YpKmFM6Oz9-29" value="" style="endArrow=classic;html=1;rounded=0;sketch=1;hachureGap=4;jiggle=2;curveFitting=1;strokeColor=#60E696;fontFamily=Architects Daughter;fontSource=https%3A%2F%2Ffonts.googleapis.com%2Fcss%3Ffamily%3DArchitects%2BDaughter;fontColor=#095C86;fillColor=#F694C1;entryX=0;entryY=0.5;entryDx=0;entryDy=0;" edge="1" parent="WIyWlLk6GJQsqaUBKTNV-1" target="7Bf5DCgLU5YpKmFM6Oz9-24">
          <mxGeometry width="50" height="50" relative="1" as="geometry">
            <mxPoint x="680" y="720" as="sourcePoint" />
            <mxPoint x="640" y="770" as="targetPoint" />
          </mxGeometry>
        </mxCell>
        <mxCell id="7Bf5DCgLU5YpKmFM6Oz9-30" value="NÃO" style="text;html=1;align=center;verticalAlign=middle;resizable=0;points=[];autosize=1;strokeColor=none;fillColor=none;fontFamily=Architects Daughter;fontSource=https%3A%2F%2Ffonts.googleapis.com%2Fcss%3Ffamily%3DArchitects%2BDaughter;fontColor=#095C86;" vertex="1" parent="WIyWlLk6GJQsqaUBKTNV-1">
          <mxGeometry x="885" y="658" width="50" height="30" as="geometry" />
        </mxCell>
        <mxCell id="7Bf5DCgLU5YpKmFM6Oz9-31" value="&lt;b&gt;SIM&lt;/b&gt;" style="text;html=1;align=center;verticalAlign=middle;resizable=0;points=[];autosize=1;strokeColor=none;fillColor=none;fontFamily=Architects Daughter;fontSource=https%3A%2F%2Ffonts.googleapis.com%2Fcss%3Ffamily%3DArchitects%2BDaughter;fontColor=#095C86;" vertex="1" parent="WIyWlLk6GJQsqaUBKTNV-1">
          <mxGeometry x="740" y="778" width="40" height="30" as="geometry" />
        </mxCell>
        <mxCell id="7Bf5DCgLU5YpKmFM6Oz9-32" value="É DIVISOR!" style="shape=document;whiteSpace=wrap;html=1;boundedLbl=1;sketch=1;hachureGap=4;jiggle=2;curveFitting=1;strokeColor=#36393d;fontFamily=Architects Daughter;fontSource=https%3A%2F%2Ffonts.googleapis.com%2Fcss%3Ffamily%3DArchitects%2BDaughter;fillColor=#ffcccc;" vertex="1" parent="WIyWlLk6GJQsqaUBKTNV-1">
          <mxGeometry x="780" y="808" width="120" height="80" as="geometry" />
        </mxCell>
        <mxCell id="7Bf5DCgLU5YpKmFM6Oz9-33" value="" style="endArrow=classic;html=1;rounded=0;sketch=1;hachureGap=4;jiggle=2;curveFitting=1;strokeColor=#60E696;fontFamily=Architects Daughter;fontSource=https%3A%2F%2Ffonts.googleapis.com%2Fcss%3Ffamily%3DArchitects%2BDaughter;fontColor=#095C86;fillColor=#F694C1;exitX=0.5;exitY=1;exitDx=0;exitDy=0;entryX=0.417;entryY=-0.025;entryDx=0;entryDy=0;entryPerimeter=0;" edge="1" parent="WIyWlLk6GJQsqaUBKTNV-1" source="7Bf5DCgLU5YpKmFM6Oz9-24" target="7Bf5DCgLU5YpKmFM6Oz9-32">
          <mxGeometry width="50" height="50" relative="1" as="geometry">
            <mxPoint x="880" y="820" as="sourcePoint" />
            <mxPoint x="930" y="770" as="targetPoint" />
          </mxGeometry>
        </mxCell>
        <mxCell id="7Bf5DCgLU5YpKmFM6Oz9-34" value="" style="endArrow=classic;html=1;rounded=0;sketch=1;hachureGap=4;jiggle=2;curveFitting=1;strokeColor=#60E696;fontFamily=Architects Daughter;fontSource=https%3A%2F%2Ffonts.googleapis.com%2Fcss%3Ffamily%3DArchitects%2BDaughter;fontColor=#095C86;fillColor=#F694C1;exitX=1;exitY=0.5;exitDx=0;exitDy=0;entryX=0.5;entryY=0;entryDx=0;entryDy=0;" edge="1" parent="WIyWlLk6GJQsqaUBKTNV-1" source="7Bf5DCgLU5YpKmFM6Oz9-24" target="WIyWlLk6GJQsqaUBKTNV-11">
          <mxGeometry width="50" height="50" relative="1" as="geometry">
            <mxPoint x="1040" y="830" as="sourcePoint" />
            <mxPoint x="1090" y="780" as="targetPoint" />
            <Array as="points">
              <mxPoint x="1110" y="718" />
            </Array>
          </mxGeometry>
        </mxCell>
        <mxCell id="7Bf5DCgLU5YpKmFM6Oz9-35" value="" style="endArrow=classic;html=1;rounded=0;sketch=1;hachureGap=4;jiggle=2;curveFitting=1;strokeColor=#60E696;fontFamily=Architects Daughter;fontSource=https%3A%2F%2Ffonts.googleapis.com%2Fcss%3Ffamily%3DArchitects%2BDaughter;fontColor=#095C86;fillColor=#F694C1;exitX=1.025;exitY=0.413;exitDx=0;exitDy=0;exitPerimeter=0;entryX=0.5;entryY=1;entryDx=0;entryDy=0;" edge="1" parent="WIyWlLk6GJQsqaUBKTNV-1" source="7Bf5DCgLU5YpKmFM6Oz9-32" target="WIyWlLk6GJQsqaUBKTNV-11">
          <mxGeometry width="50" height="50" relative="1" as="geometry">
            <mxPoint x="1040" y="830" as="sourcePoint" />
            <mxPoint x="1090" y="780" as="targetPoint" />
            <Array as="points">
              <mxPoint x="1110" y="840" />
            </Array>
          </mxGeometry>
        </mxCell>
        <mxCell id="7Bf5DCgLU5YpKmFM6Oz9-36" value="&lt;b&gt;&lt;font style=&quot;font-size: 18px;&quot;&gt;RESOLUÇÃO&lt;/font&gt;&lt;/b&gt;&amp;nbsp;" style="text;html=1;align=center;verticalAlign=middle;resizable=0;points=[];autosize=1;strokeColor=none;fillColor=none;fontFamily=Architects Daughter;fontSource=https%3A%2F%2Ffonts.googleapis.com%2Fcss%3Ffamily%3DArchitects%2BDaughter;fontColor=#095C86;" vertex="1" parent="WIyWlLk6GJQsqaUBKTNV-1">
          <mxGeometry x="345" y="133" width="130" height="40" as="geometry" />
        </mxCell>
      </root>
    </mxGraphModel>
  </diagram>
</mxfile>
